<svg width="1200" height="1200" xmlns="http://www.w3.org/2000/svg" version="1.1" viewBox="0 0 1200 1200">
  <rect width="1200" height="1200" rx="240" fill="#0a0a0a"/>
  <g transform="scale(1.5085905338303902) translate(-296.2777336968316, 1.7722235785590286)">
    <g fill="#d4af37">
      <path d="M983.5,226.5l-16.8,75.9c13.5,33.6,20.9,70.2,20.9,108.5c0,104.7-55.4,196.8-138.4,248.6L986.8,38H873.3l-147,664.2  c-10.6,1.2-21.4,1.8-32.3,1.8c-5.5,0-11-0.2-16.5-0.5l127.8-576.9H691.8L570,676.5c-13.9-6.5-27.2-14-39.8-22.5L620,248.3H506.5  l-68,306.9c-24.3-42.6-38.1-91.9-38.1-144.3c0-147.5,109.8-269.9,252.1-290.1l11.7-51.5C488.6,84.5,350.4,231.9,350.4,411  c0,189.1,154.1,342.9,343.6,342.9c189.4,0,343.6-153.8,343.6-342.9C1037.6,343.1,1017.7,279.8,983.5,226.5z"/>
    </g>
  </g>
</svg>
